<?xml version="1.0" encoding="UTF-8"?>
<svg xmlns="http://www.w3.org/2000/svg" width="720" height="720" viewBox="-129.800 -129.800 259.600 259.600" preserveAspectRatio="xMidYMid meet" role="img" aria-labelledby="title desc">
  <title id="title">Cross</title>
  <desc id="desc">Symmetric preview of the Cross difference benchmark.</desc>
  <rect x="-129.800" y="-129.800" width="259.600" height="259.600" fill="#fbfaf7"/>
  <path class="subject" d="M -110 -90 L -50 -90 L -50 -70 L -110 -70 Z M -90 -110 L -70 -110 L -70 -50 L -90 -50 Z M -30 -90 L 30 -90 L 30 -70 L -30 -70 Z M -10 -110 L 10 -110 L 10 -50 L -10 -50 Z M 50 -90 L 110 -90 L 110 -70 L 50 -70 Z M 70 -110 L 90 -110 L 90 -50 L 70 -50 Z M -110 -10 L -50 -10 L -50 10 L -110 10 Z M -90 -30 L -70 -30 L -70 30 L -90 30 Z M -30 -10 L 30 -10 L 30 10 L -30 10 Z M -10 -30 L 10 -30 L 10 30 L -10 30 Z M 50 -10 L 110 -10 L 110 10 L 50 10 Z M 70 -30 L 90 -30 L 90 30 L 70 30 Z M -110 70 L -50 70 L -50 90 L -110 90 Z M -90 50 L -70 50 L -70 110 L -90 110 Z M -30 70 L 30 70 L 30 90 L -30 90 Z M -10 50 L 10 50 L 10 110 L -10 110 Z M 50 70 L 110 70 L 110 90 L 50 90 Z M 70 50 L 90 50 L 90 110 L 70 110 Z " fill="#ef4444" fill-opacity="0.10" stroke="#ef4444" stroke-width="5.000" stroke-linejoin="round" vector-effect="non-scaling-stroke"/>
  <path class="clip" d="M -105 -85 L -95 -85 L -95 -75 L -105 -75 Z M -65 -85 L -55 -85 L -55 -75 L -65 -75 Z M -85 -105 L -75 -105 L -75 -95 L -85 -95 Z M -85 -65 L -75 -65 L -75 -55 L -85 -55 Z M -85 -85 L -75 -85 L -75 -75 L -85 -75 Z M -25 -85 L -15 -85 L -15 -75 L -25 -75 Z M 15 -85 L 25 -85 L 25 -75 L 15 -75 Z M -5 -105 L 5 -105 L 5 -95 L -5 -95 Z M -5 -65 L 5 -65 L 5 -55 L -5 -55 Z M -5 -85 L 5 -85 L 5 -75 L -5 -75 Z M 55 -85 L 65 -85 L 65 -75 L 55 -75 Z M 95 -85 L 105 -85 L 105 -75 L 95 -75 Z M 75 -105 L 85 -105 L 85 -95 L 75 -95 Z M 75 -65 L 85 -65 L 85 -55 L 75 -55 Z M 75 -85 L 85 -85 L 85 -75 L 75 -75 Z M -105 -5 L -95 -5 L -95 5 L -105 5 Z M -65 -5 L -55 -5 L -55 5 L -65 5 Z M -85 -25 L -75 -25 L -75 -15 L -85 -15 Z M -85 15 L -75 15 L -75 25 L -85 25 Z M -85 -5 L -75 -5 L -75 5 L -85 5 Z M -25 -5 L -15 -5 L -15 5 L -25 5 Z M 15 -5 L 25 -5 L 25 5 L 15 5 Z M -5 -25 L 5 -25 L 5 -15 L -5 -15 Z M -5 15 L 5 15 L 5 25 L -5 25 Z M -5 -5 L 5 -5 L 5 5 L -5 5 Z M 55 -5 L 65 -5 L 65 5 L 55 5 Z M 95 -5 L 105 -5 L 105 5 L 95 5 Z M 75 -25 L 85 -25 L 85 -15 L 75 -15 Z M 75 15 L 85 15 L 85 25 L 75 25 Z M 75 -5 L 85 -5 L 85 5 L 75 5 Z M -105 75 L -95 75 L -95 85 L -105 85 Z M -65 75 L -55 75 L -55 85 L -65 85 Z M -85 55 L -75 55 L -75 65 L -85 65 Z M -85 95 L -75 95 L -75 105 L -85 105 Z M -85 75 L -75 75 L -75 85 L -85 85 Z M -25 75 L -15 75 L -15 85 L -25 85 Z M 15 75 L 25 75 L 25 85 L 15 85 Z M -5 55 L 5 55 L 5 65 L -5 65 Z M -5 95 L 5 95 L 5 105 L -5 105 Z M -5 75 L 5 75 L 5 85 L -5 85 Z M 55 75 L 65 75 L 65 85 L 55 85 Z M 95 75 L 105 75 L 105 85 L 95 85 Z M 75 55 L 85 55 L 85 65 L 75 65 Z M 75 95 L 85 95 L 85 105 L 75 105 Z M 75 75 L 85 75 L 85 85 L 75 85 Z " fill="#3b82f6" fill-opacity="0.10" stroke="#3b82f6" stroke-width="5.000" stroke-linejoin="round" vector-effect="non-scaling-stroke"/>
</svg>
